// Clean electric guitar.
// Low velocity notes (less than 58) play muted strings.
// Higher velocities play sustained notes.
// Soft pedal selects hammer off.

<control>
	set_cc1=0
	set_cc11=127
	set_cc64=0
	set_cc67=0

<group>
	ampeg_sustain=0.001
	ampeg_release=0.4
	loop_mode=loop_continuous
	seq_length=3
	lovel=58 hivel=127
	locc67=0 hicc67=63
<region>
	sample=00_Sus_1.wav
	pitch_keycenter=40
	lokey=0 hikey=40
	ampeg_decay=30.0
<region>
	seq_position=2
	sample=00_Sus_2.wav
	pitch_keycenter=40
	lokey=0 hikey=40
	ampeg_decay=30.0
<region>
	seq_position=3
	sample=00_Sus_3.wav
	pitch_keycenter=40
	lokey=0 hikey=40
	ampeg_decay=30.0
	seq_position=3
<region>
	sample=02_Sus_1.wav
	pitch_keycenter=42
	lokey=41 hikey=42
	ampeg_decay=30.0
<region>
	seq_position=2
	sample=02_Sus_2.wav
	pitch_keycenter=42
	lokey=41 hikey=42
	ampeg_decay=30.0
<region>
	seq_position=3
	sample=02_Sus_3.wav
	pitch_keycenter=42
	lokey=41 hikey=42
	ampeg_decay=30.0
<region>
	sample=04_Sus_1.wav
	pitch_keycenter=44
	lokey=43 hikey=44
	ampeg_decay=30.0
<region>
	seq_position=2
	sample=04_Sus_2.wav
	pitch_keycenter=44
	lokey=43 hikey=44
	ampeg_decay=30.0
<region>
	seq_position=3
	sample=04_Sus_3.wav
	pitch_keycenter=44
	lokey=43 hikey=44
	ampeg_decay=30.0
<region>
	sample=06_Sus_1.wav
	pitch_keycenter=46
	lokey=45 hikey=46
	ampeg_decay=30.0
<region>
	seq_position=2
	sample=06_Sus_2.wav
	pitch_keycenter=46
	lokey=45 hikey=46
	ampeg_decay=30.0
<region>
	seq_position=3
	sample=06_Sus_3.wav
	pitch_keycenter=46
	lokey=45 hikey=46
	ampeg_decay=30.0
<region>
	sample=08_Sus_1.wav
	pitch_keycenter=48
	lokey=47 hikey=48
	ampeg_decay=30.0
<region>
	seq_position=2
	sample=08_Sus_2.wav
	pitch_keycenter=48
	lokey=47 hikey=48
	ampeg_decay=30.0
<region>
	seq_position=3
	sample=08_Sus_3.wav
	pitch_keycenter=48
	lokey=47 hikey=48
	ampeg_decay=30.0
<region>
	sample=10_Sus_1.wav
	pitch_keycenter=50
	lokey=49 hikey=50
	ampeg_decay=30.0
<region>
	seq_position=2
	sample=10_Sus_2.wav
	pitch_keycenter=50
	lokey=49 hikey=50
	ampeg_decay=30.0
<region>
	seq_position=3
	sample=10_Sus_3.wav
	pitch_keycenter=50
	lokey=49 hikey=50
	ampeg_decay=30.0
<region>
	sample=12_Sus_1.wav
	pitch_keycenter=52
	lokey=51 hikey=52
	ampeg_decay=30.0
<region>
	seq_position=2
	sample=12_Sus_2.wav
	pitch_keycenter=52
	lokey=51 hikey=52
	ampeg_decay=30.0
<region>
	seq_position=3
	sample=12_Sus_3.wav
	pitch_keycenter=52
	lokey=51 hikey=52
	ampeg_decay=30.0
<region>
	sample=14_Sus_1.wav
	pitch_keycenter=54
	lokey=53 hikey=54
	ampeg_decay=30.0
<region>
	seq_position=2
	sample=14_Sus_2.wav
	pitch_keycenter=54
	lokey=53 hikey=54
	ampeg_decay=30.0
<region>
	seq_position=3
	sample=14_Sus_3.wav
	pitch_keycenter=54
	lokey=53 hikey=54
	ampeg_decay=30.0
<region>
	sample=16_Sus_1.wav
	pitch_keycenter=56
	lokey=55 hikey=56
	ampeg_decay=30.0
<region>
	seq_position=2
	sample=16_Sus_2.wav
	pitch_keycenter=56
	lokey=55 hikey=56
	ampeg_decay=30.0
<region>
	seq_position=3
	sample=16_Sus_3.wav
	pitch_keycenter=56
	lokey=55 hikey=56
	ampeg_decay=30.0
<region>
	sample=18_Sus_1.wav
	pitch_keycenter=58
	lokey=57 hikey=58
	ampeg_decay=30.0
<region>
	seq_position=2
	sample=18_Sus_2.wav
	pitch_keycenter=58
	lokey=57 hikey=58
	ampeg_decay=30.0
<region>
	seq_position=3
	sample=18_Sus_3.wav
	pitch_keycenter=58
	lokey=57 hikey=58
	ampeg_decay=30.0
<region>
	sample=20_Sus_1.wav
	pitch_keycenter=60
	lokey=59 hikey=60
	ampeg_decay=30.0
<region>
	seq_position=2
	sample=20_Sus_2.wav
	pitch_keycenter=60
	lokey=59 hikey=60
	ampeg_decay=30.0
<region>
	seq_position=3
	sample=20_Sus_3.wav
	pitch_keycenter=60
	lokey=59 hikey=60
	ampeg_decay=30.0
<region>
	sample=22_Sus_1.wav
	pitch_keycenter=62
	lokey=61 hikey=62
	ampeg_decay=30.0
<region>
	seq_position=2
	sample=22_Sus_2.wav
	pitch_keycenter=62
	lokey=61 hikey=62
	ampeg_decay=30.0
<region>
	seq_position=3
	sample=22_Sus_3.wav
	pitch_keycenter=62
	lokey=61 hikey=62
	ampeg_decay=30.0
<region>
	sample=24_Sus_1.wav
	pitch_keycenter=64
	lokey=63 hikey=64
	ampeg_decay=30.0
<region>
	seq_position=2
	sample=24_Sus_2.wav
	pitch_keycenter=64
	lokey=63 hikey=64
	ampeg_decay=30.0
<region>
	seq_position=3
	sample=24_Sus_3.wav
	pitch_keycenter=64
	lokey=63 hikey=64
	ampeg_decay=30.0
<region>
	sample=26_Sus_1.wav
	pitch_keycenter=66
	lokey=65 hikey=66
	ampeg_decay=30.0
<region>
	seq_position=2
	sample=26_Sus_2.wav
	pitch_keycenter=66
	lokey=65 hikey=66
	ampeg_decay=30.0
<region>
	seq_position=3
	sample=26_Sus_3.wav
	pitch_keycenter=66
	lokey=65 hikey=66
	ampeg_decay=30.0
<region>
	sample=28_Sus_1.wav
	pitch_keycenter=68
	lokey=67 hikey=68
	ampeg_decay=30.0
<region>
	seq_position=2
	sample=28_Sus_2.wav
	pitch_keycenter=68
	lokey=67 hikey=68
	ampeg_decay=30.0
<region>
	seq_position=3
	sample=28_Sus_3.wav
	pitch_keycenter=68
	lokey=67 hikey=68
	ampeg_decay=30.0
<region>
	sample=30_Sus_1.wav
	pitch_keycenter=70
	lokey=69 hikey=70
	ampeg_decay=30.0
<region>
	seq_position=2
	sample=30_Sus_2.wav
	pitch_keycenter=70
	lokey=69 hikey=70
	ampeg_decay=30.0
<region>
	seq_position=3
	sample=30_Sus_3.wav
	pitch_keycenter=70
	lokey=69 hikey=70
	ampeg_decay=30.0
<region>
	sample=32_Sus_1.wav
	pitch_keycenter=72
	lokey=71 hikey=72
	ampeg_decay=30.0
<region>
	seq_position=2
	sample=32_Sus_2.wav
	pitch_keycenter=72
	lokey=71 hikey=72
	ampeg_decay=30.0
<region>
	seq_position=3
	sample=32_Sus_3.wav
	pitch_keycenter=72
	lokey=71 hikey=72
	ampeg_decay=30.0
<region>
	sample=34_Sus_1.wav
	pitch_keycenter=74
	lokey=73 hikey=74
	ampeg_decay=30.0
<region>
	seq_position=2
	sample=34_Sus_2.wav
	pitch_keycenter=74
	lokey=73 hikey=74
	ampeg_decay=30.0
<region>
	seq_position=3
	sample=34_Sus_3.wav
	pitch_keycenter=74
	lokey=73 hikey=74
	ampeg_decay=30.0
<region>
	sample=36_Sus_1.wav
	pitch_keycenter=76
	lokey=75 hikey=76
	ampeg_decay=30.0
<region>
	seq_position=2
	sample=36_Sus_2.wav
	pitch_keycenter=76
	lokey=75 hikey=76
	ampeg_decay=30.0
<region>
	seq_position=3
	sample=36_Sus_3.wav
	pitch_keycenter=76
	lokey=75 hikey=76
	ampeg_decay=30.0
<region>
	sample=38_Sus_1.wav
	pitch_keycenter=78
	lokey=77 hikey=78
	ampeg_decay=30.0
<region>
	seq_position=2
	sample=38_Sus_2.wav
	pitch_keycenter=78
	lokey=77 hikey=78
	ampeg_decay=30.0
<region>
	seq_position=3
	sample=38_Sus_3.wav
	pitch_keycenter=78
	lokey=77 hikey=78
	ampeg_decay=30.0
<region>
	sample=40_Sus_1.wav
	pitch_keycenter=80
	lokey=79 hikey=80
	ampeg_decay=30.0
<region>
	seq_position=2
	sample=40_Sus_2.wav
	pitch_keycenter=80
	lokey=79 hikey=80
	ampeg_decay=30.0
<region>
	seq_position=3
	sample=40_Sus_3.wav
	pitch_keycenter=80
	lokey=79 hikey=80
	ampeg_decay=30.0
<region>
	sample=42_Sus_1.wav
	pitch_keycenter=82
	lokey=81 hikey=82
	ampeg_decay=30.0
<region>
	seq_position=2
	sample=42_Sus_2.wav
	pitch_keycenter=82
	lokey=81 hikey=82
	ampeg_decay=30.0
<region>
	seq_position=3
	sample=42_Sus_3.wav
	pitch_keycenter=82
	lokey=81 hikey=82
	ampeg_decay=30.0
<region>
	sample=44_Sus_1.wav
	pitch_keycenter=84
	lokey=83 hikey=84
	ampeg_decay=30.0
<region>
	seq_position=2
	sample=44_Sus_2.wav
	pitch_keycenter=84
	lokey=83 hikey=84
	ampeg_decay=30.0
<region>
	seq_position=3
	sample=44_Sus_3.wav
	pitch_keycenter=84
	lokey=83 hikey=84
	ampeg_decay=30.0
<region>
	sample=46_Sus_1.wav
	pitch_keycenter=86
	lokey=85 hikey=127
	ampeg_decay=30.0
<region>
	seq_position=2
	sample=46_Sus_2.wav
	pitch_keycenter=86
	lokey=85 hikey=127
	ampeg_decay=30.0
<region>
	seq_position=3
	sample=46_Sus_3.wav
	pitch_keycenter=86
	lokey=85 hikey=127
	ampeg_decay=30.0


// Hammer off
<group>
	ampeg_sustain=0.001
	ampeg_release=0.4
	loop_mode=loop_continuous
	seq_length=3
	locc67=64 hicc67=127
	lovel=58 hivel=127
<region>
	sample=00_Sus_1.wav
	pitch_keycenter=40
	lokey=0 hikey=40
	ampeg_decay=30.0
	offset=49308
<region>
	seq_position=2
	sample=00_Sus_2.wav
	pitch_keycenter=40
	lokey=0 hikey=40
	ampeg_decay=30.0
	offset=29575
<region>
	seq_position=3
	sample=00_Sus_3.wav
	pitch_keycenter=40
	lokey=0 hikey=40
	ampeg_decay=30.0
	seq_position=3
	offset=46555
<region>
	sample=02_Sus_1.wav
	pitch_keycenter=42
	lokey=41 hikey=42
	ampeg_decay=30.0
	offset=33722
<region>
	seq_position=2
	sample=02_Sus_2.wav
	pitch_keycenter=42
	lokey=41 hikey=42
	ampeg_decay=30.0
	offset=37651
<region>
	seq_position=3
	sample=02_Sus_3.wav
	pitch_keycenter=42
	lokey=41 hikey=42
	ampeg_decay=30.0
	offset=49458
<region>
	sample=04_Sus_1.wav
	pitch_keycenter=44
	lokey=43 hikey=44
	ampeg_decay=30.0
	offset=46458
<region>
	seq_position=2
	sample=04_Sus_2.wav
	pitch_keycenter=44
	lokey=43 hikey=44
	ampeg_decay=30.0
	offset=50620
<region>
	seq_position=3
	sample=04_Sus_3.wav
	pitch_keycenter=44
	lokey=43 hikey=44
	ampeg_decay=30.0
	offset=39464
<region>
	sample=06_Sus_1.wav
	pitch_keycenter=46
	lokey=45 hikey=46
	ampeg_decay=30.0
	offset=26342
<region>
	seq_position=2
	sample=06_Sus_2.wav
	pitch_keycenter=46
	lokey=45 hikey=46
	ampeg_decay=30.0
	offset=30559
<region>
	seq_position=3
	sample=06_Sus_3.wav
	pitch_keycenter=46
	lokey=45 hikey=46
	ampeg_decay=30.0
	offset=38730
<region>
	sample=08_Sus_1.wav
	pitch_keycenter=48
	lokey=47 hikey=48
	ampeg_decay=30.0
	offset=18049
<region>
	seq_position=2
	sample=08_Sus_2.wav
	pitch_keycenter=48
	lokey=47 hikey=48
	ampeg_decay=30.0
	offset=17584
<region>
	seq_position=3
	sample=08_Sus_3.wav
	pitch_keycenter=48
	lokey=47 hikey=48
	ampeg_decay=30.0
	offset=27406
<region>
	sample=10_Sus_1.wav
	pitch_keycenter=50
	lokey=49 hikey=50
	ampeg_decay=30.0
	offset=26713
<region>
	seq_position=2
	sample=10_Sus_2.wav
	pitch_keycenter=50
	lokey=49 hikey=50
	ampeg_decay=30.0
	offset=44632
<region>
	seq_position=3
	sample=10_Sus_3.wav
	pitch_keycenter=50
	lokey=49 hikey=50
	ampeg_decay=30.0
	offset=26050
<region>
	sample=12_Sus_1.wav
	pitch_keycenter=52
	lokey=51 hikey=52
	ampeg_decay=30.0
	offset=23222
<region>
	seq_position=2
	sample=12_Sus_2.wav
	pitch_keycenter=52
	lokey=51 hikey=52
	ampeg_decay=30.0
	offset=24039
<region>
	seq_position=3
	sample=12_Sus_3.wav
	pitch_keycenter=52
	lokey=51 hikey=52
	ampeg_decay=30.0
	offset=24930
//
<region>
	sample=14_Sus_1.wav
	pitch_keycenter=54
	lokey=53 hikey=54
	ampeg_decay=30.0
	offset=13281
<region>
	seq_position=2
	sample=14_Sus_2.wav
	pitch_keycenter=54
	lokey=53 hikey=54
	ampeg_decay=30.0
	offset=12172
<region>
	seq_position=3
	sample=14_Sus_3.wav
	pitch_keycenter=54
	lokey=53 hikey=54
	ampeg_decay=30.0
	offset=12249
<region>
	sample=16_Sus_1.wav
	pitch_keycenter=56
	lokey=55 hikey=56
	ampeg_decay=30.0
	offset=23575
<region>
	seq_position=2
	sample=16_Sus_2.wav
	pitch_keycenter=56
	lokey=55 hikey=56
	ampeg_decay=30.0
	offset=23706
<region>
	seq_position=3
	sample=16_Sus_3.wav
	pitch_keycenter=56
	lokey=55 hikey=56
	ampeg_decay=30.0
	offset=24132
<region>
	sample=18_Sus_1.wav
	pitch_keycenter=58
	lokey=57 hikey=58
	ampeg_decay=30.0
	offset=27657
<region>
	seq_position=2
	sample=18_Sus_2.wav
	pitch_keycenter=58
	lokey=57 hikey=58
	ampeg_decay=30.0
	offset=36533
<region>
	seq_position=3
	sample=18_Sus_3.wav
	pitch_keycenter=58
	lokey=57 hikey=58
	ampeg_decay=30.0
	offset=27719
<region>
	sample=20_Sus_1.wav
	pitch_keycenter=60
	lokey=59 hikey=60
	ampeg_decay=30.0
	offset=41424
<region>
	seq_position=2
	sample=20_Sus_2.wav
	pitch_keycenter=60
	lokey=59 hikey=60
	ampeg_decay=30.0
	offset=45015
<region>
	seq_position=3
	sample=20_Sus_3.wav
	pitch_keycenter=60
	lokey=59 hikey=60
	ampeg_decay=30.0
	offset=36306
<region>
	sample=22_Sus_1.wav
	pitch_keycenter=62
	lokey=61 hikey=62
	ampeg_decay=30.0
	offset=23609
<region>
	seq_position=2
	sample=22_Sus_2.wav
	pitch_keycenter=62
	lokey=61 hikey=62
	ampeg_decay=30.0
	offset=18972
<region>
	seq_position=3
	sample=22_Sus_3.wav
	pitch_keycenter=62
	lokey=61 hikey=62
	ampeg_decay=30.0
	offset=19834
<region>
	sample=24_Sus_1.wav
	pitch_keycenter=64
	lokey=63 hikey=64
	ampeg_decay=30.0
	offset=13245
<region>
	seq_position=2
	sample=24_Sus_2.wav
	pitch_keycenter=64
	lokey=63 hikey=64
	ampeg_decay=30.0
	offset=15286
<region>
	seq_position=3
	sample=24_Sus_3.wav
	pitch_keycenter=64
	lokey=63 hikey=64
	ampeg_decay=30.0
	offset=15824
<region>
	sample=26_Sus_1.wav
	pitch_keycenter=66
	lokey=65 hikey=66
	ampeg_decay=30.0
	offset=17715
<region>
	seq_position=2
	sample=26_Sus_2.wav
	pitch_keycenter=66
	lokey=65 hikey=66
	ampeg_decay=30.0
	offset=25477
<region>
	seq_position=3
	sample=26_Sus_3.wav
	pitch_keycenter=66
	lokey=65 hikey=66
	ampeg_decay=30.0
	offset=27690
<region>
	sample=28_Sus_1.wav
	pitch_keycenter=68
	lokey=67 hikey=68
	ampeg_decay=30.0
	offset=13494
<region>
	seq_position=2
	sample=28_Sus_2.wav
	pitch_keycenter=68
	lokey=67 hikey=68
	ampeg_decay=30.0
	offset=16463
<region>
	seq_position=3
	sample=28_Sus_3.wav
	pitch_keycenter=68
	lokey=67 hikey=68
	ampeg_decay=30.0
	offset=21686
<region>
	sample=30_Sus_1.wav
	pitch_keycenter=70
	lokey=69 hikey=70
	ampeg_decay=30.0
	offset=20236
<region>
	seq_position=2
	sample=30_Sus_2.wav
	pitch_keycenter=70
	lokey=69 hikey=70
	ampeg_decay=30.0
	offset=26530
<region>
	seq_position=3
	sample=30_Sus_3.wav
	pitch_keycenter=70
	lokey=69 hikey=70
	ampeg_decay=30.0
	offset=16527
<region>
	sample=32_Sus_1.wav
	pitch_keycenter=72
	lokey=71 hikey=72
	ampeg_decay=30.0
	offset=22240
<region>
	seq_position=2
	sample=32_Sus_2.wav
	pitch_keycenter=72
	lokey=71 hikey=72
	ampeg_decay=30.0
	offset=19122
<region>
	seq_position=3
	sample=32_Sus_3.wav
	pitch_keycenter=72
	lokey=71 hikey=72
	ampeg_decay=30.0
	offset=26503
<region>
	sample=34_Sus_1.wav
	pitch_keycenter=74
	lokey=73 hikey=74
	ampeg_decay=30.0
	offset=20445
<region>
	seq_position=2
	sample=34_Sus_2.wav
	pitch_keycenter=74
	lokey=73 hikey=74
	ampeg_decay=30.0
	offset=28677
<region>
	seq_position=3
	sample=34_Sus_3.wav
	pitch_keycenter=74
	lokey=73 hikey=74
	ampeg_decay=30.0
	offset=30102
<region>
	sample=36_Sus_1.wav
	pitch_keycenter=76
	lokey=75 hikey=76
	ampeg_decay=30.0
	offset=25699
<region>
	seq_position=2
	sample=36_Sus_2.wav
	pitch_keycenter=76
	lokey=75 hikey=76
	ampeg_decay=30.0
	offset=31759
<region>
	seq_position=3
	sample=36_Sus_3.wav
	pitch_keycenter=76
	lokey=75 hikey=76
	ampeg_decay=30.0
	offset=33069
<region>
	sample=38_Sus_1.wav
	pitch_keycenter=78
	lokey=77 hikey=78
	ampeg_decay=30.0
	offset=21365
<region>
	seq_position=2
	sample=38_Sus_2.wav
	pitch_keycenter=78
	lokey=77 hikey=78
	ampeg_decay=30.0
	offset=28810
<region>
	seq_position=3
	sample=38_Sus_3.wav
	pitch_keycenter=78
	lokey=77 hikey=78
	ampeg_decay=30.0
	offset=22624
<region>
	sample=40_Sus_1.wav
	pitch_keycenter=80
	lokey=79 hikey=80
	ampeg_decay=30.0
	offset=18025
<region>
	seq_position=2
	sample=40_Sus_2.wav
	pitch_keycenter=80
	lokey=79 hikey=80
	ampeg_decay=30.0
	offset=19957
<region>
	seq_position=3
	sample=40_Sus_3.wav
	pitch_keycenter=80
	lokey=79 hikey=80
	ampeg_decay=30.0
	offset=17462
<region>
	sample=42_Sus_1.wav
	pitch_keycenter=82
	lokey=81 hikey=82
	ampeg_decay=30.0
	offset=20787
<region>
	seq_position=2
	sample=42_Sus_2.wav
	pitch_keycenter=82
	lokey=81 hikey=82
	ampeg_decay=30.0
	offset=23815
<region>
	seq_position=3
	sample=42_Sus_3.wav
	pitch_keycenter=82
	lokey=81 hikey=82
	ampeg_decay=30.0
	offset=23066
<region>
	sample=44_Sus_1.wav
	pitch_keycenter=84
	lokey=83 hikey=84
	ampeg_decay=30.0
	offset=24053
<region>
	seq_position=2
	sample=44_Sus_2.wav
	pitch_keycenter=84
	lokey=83 hikey=84
	ampeg_decay=30.0
	offset=24628
<region>
	seq_position=3
	sample=44_Sus_3.wav
	pitch_keycenter=84
	lokey=83 hikey=84
	ampeg_decay=30.0
	offset=13173
<region>
	sample=46_Sus_1.wav
	pitch_keycenter=86
	lokey=85 hikey=127
	ampeg_decay=30.0
	offset=19076
<region>
	seq_position=2
	sample=46_Sus_2.wav
	pitch_keycenter=86
	lokey=85 hikey=127
	ampeg_decay=30.0
	offset=11977
<region>
	seq_position=3
	sample=46_Sus_3.wav
	pitch_keycenter=86
	lokey=85 hikey=127
	ampeg_decay=30.0
	offset=16382

// muted
<group>
	ampeg_sustain=0.001
	ampeg_release=0.4
	loop_mode=loop_continuous
	seq_length=4
	lovel=1 hivel=57
<region>
	sample=00_Mute_1.wav
	pitch_keycenter=40
	lokey=0 hikey=40
	ampeg_decay=24.0
<region>
	seq_position=2
	sample=00_Mute_2.wav
	pitch_keycenter=40
	lokey=0 hikey=40
	ampeg_decay=24.0
<region>
	seq_position=3
	sample=00_Mute_3.wav
	pitch_keycenter=40
	lokey=0 hikey=40
	ampeg_decay=24.0
<region>
	seq_position=4
	sample=00_Mute_4.wav
	pitch_keycenter=40
	lokey=0 hikey=40
	ampeg_decay=24.0
<region>
	sample=02_Mute_1.wav
	pitch_keycenter=42
	lokey=41 hikey=42
	ampeg_decay=24.0
<region>
	seq_position=2
	sample=02_Mute_2.wav
	pitch_keycenter=42
	lokey=41 hikey=42
	ampeg_decay=24.0
<region>
	seq_position=3
	sample=02_Mute_3.wav
	pitch_keycenter=42
	lokey=41 hikey=42
	ampeg_decay=24.0
<region>
	seq_position=4
	sample=02_Mute_4.wav
	pitch_keycenter=42
	lokey=41 hikey=42
	ampeg_decay=24.0
<region>
	sample=04_Mute_1.wav
	pitch_keycenter=44
	lokey=43 hikey=44
	ampeg_decay=20.0
<region>
	seq_position=2
	sample=04_Mute_2.wav
	pitch_keycenter=44
	lokey=43 hikey=44
	ampeg_decay=20.0
<region>
	seq_position=3
	sample=04_Mute_3.wav
	pitch_keycenter=44
	lokey=43 hikey=44
	ampeg_decay=20.0
<region>
	seq_position=4
	sample=04_Mute_4.wav
	pitch_keycenter=44
	lokey=43 hikey=44
	ampeg_decay=20.0
<region>
	sample=06_Mute_1.wav
	pitch_keycenter=46
	lokey=45 hikey=46
	ampeg_decay=17.0
<region>
	seq_position=2
	sample=06_Mute_2.wav
	pitch_keycenter=46
	lokey=45 hikey=46
	ampeg_decay=17.0
<region>
	seq_position=3
	sample=06_Mute_3.wav
	pitch_keycenter=46
	lokey=45 hikey=46
	ampeg_decay=17.0
<region>
	seq_position=4
	sample=06_Mute_4.wav
	pitch_keycenter=46
	lokey=45 hikey=46
	ampeg_decay=17.0
<region>
	sample=08_Mute_1.wav
	pitch_keycenter=48
	lokey=47 hikey=48
	ampeg_decay=13.0
<region>
	seq_position=2
	sample=08_Mute_2.wav
	pitch_keycenter=48
	lokey=47 hikey=48
	ampeg_decay=13.0
<region>
	seq_position=3
	sample=08_Mute_3.wav
	pitch_keycenter=48
	lokey=47 hikey=48
	ampeg_decay=13.0
<region>
	seq_position=4
	sample=08_Mute_4.wav
	pitch_keycenter=48
	lokey=47 hikey=48
	ampeg_decay=13.0
<region>
	sample=10_Mute_1.wav
	pitch_keycenter=50
	lokey=49 hikey=50
	ampeg_decay=10.0
<region>
	seq_position=2
	sample=10_Mute_2.wav
	pitch_keycenter=50
	lokey=49 hikey=50
	ampeg_decay=10.0
<region>
	seq_position=3
	sample=10_Mute_3.wav
	pitch_keycenter=50
	lokey=49 hikey=50
	ampeg_decay=10.0
<region>
	seq_position=4
	sample=10_Mute_4.wav
	pitch_keycenter=50
	lokey=49 hikey=50
	ampeg_decay=10.0
<region>
	sample=12_Mute_1.wav
	pitch_keycenter=52
	lokey=51 hikey=52
	ampeg_decay=8.0
<region>
	seq_position=2
	sample=12_Mute_2.wav
	pitch_keycenter=52
	lokey=51 hikey=52
	ampeg_decay=8.0
<region>
	seq_position=3
	sample=12_Mute_3.wav
	pitch_keycenter=52
	lokey=51 hikey=52
	ampeg_decay=8.0
<region>
	seq_position=4
	sample=12_Mute_4.wav
	pitch_keycenter=52
	lokey=51 hikey=52
	ampeg_decay=8.0
<region>
	sample=14_Mute_1.wav
	pitch_keycenter=54
	lokey=53 hikey=54
	ampeg_decay=5.0
<region>
	seq_position=2
	sample=14_Mute_2.wav
	pitch_keycenter=54
	lokey=53 hikey=54
	ampeg_decay=5.0
<region>
	seq_position=3
	sample=14_Mute_3.wav
	pitch_keycenter=54
	lokey=53 hikey=54
	ampeg_decay=5.0
<region>
	seq_position=4
	sample=14_Mute_4.wav
	pitch_keycenter=54
	lokey=53 hikey=54
	ampeg_decay=5.0
<region>
	sample=16_Mute_1.wav
	pitch_keycenter=56
	lokey=55 hikey=56
	ampeg_decay=5.0
<region>
	seq_position=2
	sample=16_Mute_2.wav
	pitch_keycenter=56
	lokey=55 hikey=56
	ampeg_decay=5.0
<region>
	seq_position=3
	sample=16_Mute_3.wav
	pitch_keycenter=56
	lokey=55 hikey=56
	ampeg_decay=5.0
<region>
	seq_position=4
	sample=16_Mute_4.wav
	pitch_keycenter=56
	lokey=55 hikey=56
	ampeg_decay=5.0
<region>
	sample=18_Mute_1.wav
	pitch_keycenter=58
	lokey=57 hikey=58
	ampeg_decay=4.5
<region>
	seq_position=2
	sample=18_Mute_2.wav
	pitch_keycenter=58
	lokey=57 hikey=58
	ampeg_decay=4.5
<region>
	seq_position=3
	sample=18_Mute_3.wav
	pitch_keycenter=58
	lokey=57 hikey=58
	ampeg_decay=4.5
<region>
	seq_position=4
	sample=18_Mute_4.wav
	pitch_keycenter=58
	lokey=57 hikey=58
	ampeg_decay=4.5
<region>
	sample=20_Mute_1.wav
	pitch_keycenter=60
	lokey=59 hikey=60
	ampeg_decay=4.0
<region>
	seq_position=2
	sample=20_Mute_2.wav
	pitch_keycenter=60
	lokey=59 hikey=60
	ampeg_decay=4.0
<region>
	seq_position=3
	sample=20_Mute_3.wav
	pitch_keycenter=60
	lokey=59 hikey=60
	ampeg_decay=4.0
<region>
	seq_position=4
	sample=20_Mute_4.wav
	pitch_keycenter=60
	lokey=59 hikey=60
	ampeg_decay=4.0
<region>
	sample=22_Mute_1.wav
	pitch_keycenter=62
	lokey=61 hikey=62
	ampeg_decay=3.5
<region>
	seq_position=2
	sample=22_Mute_2.wav
	pitch_keycenter=62
	lokey=61 hikey=62
	ampeg_decay=3.5
<region>
	seq_position=3
	sample=22_Mute_3.wav
	pitch_keycenter=62
	lokey=61 hikey=62
	ampeg_decay=3.5
<region>
	seq_position=4
	sample=22_Mute_4.wav
	pitch_keycenter=62
	lokey=61 hikey=62
	ampeg_decay=3.5
<region>
	sample=24_Mute_1.wav
	pitch_keycenter=64
	lokey=63 hikey=64
	ampeg_decay=2.2
<region>
	seq_position=2
	sample=24_Mute_2.wav
	pitch_keycenter=64
	lokey=63 hikey=64
	ampeg_decay=2.2
<region>
	seq_position=3
	sample=24_Mute_3.wav
	pitch_keycenter=64
	lokey=63 hikey=64
	ampeg_decay=2.2
<region>
	seq_position=4
	sample=24_Mute_4.wav
	pitch_keycenter=64
	lokey=63 hikey=64
	ampeg_decay=2.2

<region>
	sample=26_Mute_1.wav
	pitch_keycenter=66
	lokey=65 hikey=66
	ampeg_decay=2.2
<region>
	seq_position=2
	sample=26_Mute_2.wav
	pitch_keycenter=66
	lokey=65 hikey=66
	ampeg_decay=2.2
<region>
	seq_position=3
	sample=26_Mute_3.wav
	pitch_keycenter=66
	lokey=65 hikey=66
	ampeg_decay=2.2
<region>
	seq_position=4
	sample=26_Mute_4.wav
	pitch_keycenter=66
	lokey=65 hikey=66
	ampeg_decay=2.2
<region>
	sample=28_Mute_1.wav
	pitch_keycenter=68
	lokey=67 hikey=68
	ampeg_decay=2.2
<region>
	seq_position=2
	sample=28_Mute_2.wav
	pitch_keycenter=68
	lokey=67 hikey=68
	ampeg_decay=2.2
<region>
	seq_position=3
	sample=28_Mute_3.wav
	pitch_keycenter=68
	lokey=67 hikey=68
	ampeg_decay=2.2
<region>
	seq_position=4
	sample=28_Mute_4.wav
	pitch_keycenter=68
	lokey=67 hikey=68
	ampeg_decay=2.2
<region>
	sample=30_Mute_1.wav
	pitch_keycenter=70
	lokey=69 hikey=70
	ampeg_decay=2.2
<region>
	seq_position=2
	sample=30_Mute_2.wav
	pitch_keycenter=70
	lokey=69 hikey=70
	ampeg_decay=2.2
<region>
	seq_position=3
	sample=30_Mute_3.wav
	pitch_keycenter=70
	lokey=69 hikey=70
	ampeg_decay=2.2
<region>
	seq_position=4
	sample=30_Mute_4.wav
	pitch_keycenter=70
	lokey=69 hikey=70
	ampeg_decay=2.2
<region>
	sample=32_Mute_1.wav
	pitch_keycenter=72
	lokey=71 hikey=72
	ampeg_decay=2.5
<region>
	seq_position=2
	sample=32_Mute_2.wav
	pitch_keycenter=72
	lokey=71 hikey=72
	ampeg_decay=2.5
<region>
	seq_position=3
	sample=32_Mute_3.wav
	pitch_keycenter=72
	lokey=71 hikey=72
	ampeg_decay=2.5
<region>
	seq_position=4
	sample=32_Mute_4.wav
	pitch_keycenter=72
	lokey=71 hikey=72
	ampeg_decay=2.5
<region>
	sample=34_Mute_1.wav
	pitch_keycenter=74
	lokey=73 hikey=74
	ampeg_decay=3.0
<region>
	seq_position=2
	sample=34_Mute_2.wav
	pitch_keycenter=74
	lokey=73 hikey=74
	ampeg_decay=3.0
<region>
	seq_position=3
	sample=34_Mute_3.wav
	pitch_keycenter=74
	lokey=73 hikey=74
	ampeg_decay=3.0
<region>
	seq_position=4
	sample=34_Mute_4.wav
	pitch_keycenter=74
	lokey=73 hikey=74
	ampeg_decay=3.0
<region>
	sample=36_Mute_1.wav
	pitch_keycenter=76
	lokey=75 hikey=76
	ampeg_decay=4
<region>
	seq_position=2
	sample=36_Mute_2.wav
	pitch_keycenter=76
	lokey=75 hikey=76
	ampeg_decay=4
<region>
	seq_position=3
	sample=36_Mute_3.wav
	pitch_keycenter=76
	lokey=75 hikey=76
	ampeg_decay=4
<region>
	seq_position=4
	sample=36_Mute_4.wav
	pitch_keycenter=76
	lokey=75 hikey=76
	ampeg_decay=4
<region>
	sample=38_Mute_1.wav
	pitch_keycenter=78
	lokey=77 hikey=78
	ampeg_decay=4
<region>
	seq_position=2
	sample=38_Mute_2.wav
	pitch_keycenter=78
	lokey=77 hikey=78
	ampeg_decay=4
<region>
	seq_position=3
	sample=38_Mute_3.wav
	pitch_keycenter=78
	lokey=77 hikey=78
	ampeg_decay=4
<region>
	seq_position=4
	sample=38_Mute_4.wav
	pitch_keycenter=78
	lokey=77 hikey=78
	ampeg_decay=4
<region>
	sample=40_Mute_1.wav
	pitch_keycenter=80
	lokey=79 hikey=80
	ampeg_decay=3.0
<region>
	seq_position=2
	sample=40_Mute_2.wav
	pitch_keycenter=80
	lokey=79 hikey=80
	ampeg_decay=3.0
<region>
	seq_position=3
	sample=40_Mute_3.wav
	pitch_keycenter=80
	lokey=79 hikey=80
	ampeg_decay=3.0
<region>
	seq_position=4
	sample=40_Mute_4.wav
	pitch_keycenter=80
	lokey=79 hikey=80
	ampeg_decay=3.0
<region>
	sample=42_Mute_1.wav
	pitch_keycenter=82
	lokey=81 hikey=82
	ampeg_decay=10.0
<region>
	seq_position=2
	sample=42_Mute_2.wav
	pitch_keycenter=82
	lokey=81 hikey=82
	ampeg_decay=10.0
<region>
	seq_position=3
	sample=42_Mute_3.wav
	pitch_keycenter=82
	lokey=81 hikey=82
	ampeg_decay=10.0
<region>
	seq_position=4
	sample=42_Mute_4.wav
	pitch_keycenter=82
	lokey=81 hikey=82
	ampeg_decay=10.0
<region>
	sample=44_Mute_1.wav
	pitch_keycenter=84
	lokey=83 hikey=84
	ampeg_decay=5.0
<region>
	seq_position=2
	sample=44_Mute_2.wav
	pitch_keycenter=84
	lokey=83 hikey=84
	ampeg_decay=5.0
<region>
	seq_position=3
	sample=44_Mute_3.wav
	pitch_keycenter=84
	lokey=83 hikey=84
	ampeg_decay=5.0
<region>
	seq_position=4
	sample=44_Mute_4.wav
	pitch_keycenter=84
	lokey=83 hikey=84
	ampeg_decay=5.0
<region>
	sample=46_Mute_1.wav
	pitch_keycenter=86
	lokey=85 hikey=127
	ampeg_decay=5.0
<region>
	seq_position=2
	sample=46_Mute_2.wav
	pitch_keycenter=86
	lokey=85 hikey=127
	ampeg_decay=5.0
<region>
	seq_position=3
	sample=46_Mute_3.wav
	pitch_keycenter=86
	lokey=85 hikey=127
	ampeg_decay=5.0
<region>
	seq_position=4
	sample=46_Mute_4.wav
	pitch_keycenter=86
	lokey=85 hikey=127
	ampeg_decay=5.0
